<svg id="Layer_1" data-name="Layer 1" xmlns="http://www.w3.org/2000/svg" viewBox="0 0 199.49 62.64"><defs><style>.cls-1{fill:#036893;}.cls-2{fill:#f9ba17;}.cls-3{fill:#44b7aa;}.cls-4{fill:#e84228;}.cls-5{fill:#454444;}</style></defs><path class="cls-1" d="M1.68,39.26V3.05H10V18.66L23.3,3.05h9.38L19.11,19.22l14.48,20H24.05L13.8,24.67,10,28.6V39.26Z"/><path class="cls-1" d="M36.3,39.26V3.05h8.36V39.26Z"/><path class="cls-1" d="M50.89,28.91V21.57H66.6v7.34Z"/><path class="cls-2" d="M96.79,10.39h-11V39.26H77.41V10.39H66.34V3.05H96.79Z"/><path class="cls-3" d="M126.32,31.91v7.34H100.87V3h25v7.34H109.23v7h14.28V24.2H109.23v7.7h17.09Z"/><path class="cls-4" d="M128.56,20.85a18.38,18.38,0,0,1,1.22-6.5,17.86,17.86,0,0,1,3.57-5.79,18.06,18.06,0,0,1,5.71-4.13,17.82,17.82,0,0,1,7.65-1.58A17.24,17.24,0,0,1,155.56,5a14.16,14.16,0,0,1,5.58,5.71l-6.43,4.49a7.52,7.52,0,0,0-1.56-2.37,8.4,8.4,0,0,0-2.07-1.53,8.74,8.74,0,0,0-2.29-.82,12.18,12.18,0,0,0-2.29-.23,8.58,8.58,0,0,0-4.18,1,9.24,9.24,0,0,0-3,2.5,10.37,10.37,0,0,0-1.73,3.47,13.83,13.83,0,0,0-.56,3.93,13,13,0,0,0,.66,4.13,11,11,0,0,0,1.91,3.52,9.17,9.17,0,0,0,3,2.42,8.66,8.66,0,0,0,3.95.89,10,10,0,0,0,2.32-.28,9.48,9.48,0,0,0,2.29-.87,8.12,8.12,0,0,0,2-1.53,7.27,7.27,0,0,0,1.48-2.32l6.83,4a10.52,10.52,0,0,1-2.42,3.57,14.82,14.82,0,0,1-3.7,2.65A19.63,19.63,0,0,1,151,39a19.86,19.86,0,0,1-4.59.56A16.27,16.27,0,0,1,139.16,38a18.24,18.24,0,0,1-5.66-4.26,19.52,19.52,0,0,1-3.67-6,18.77,18.77,0,0,1-1.3-6.83Z"/><path class="cls-4" d="M196.9,3.05V39.26h-8.36V24.42H174.11V39.26h-8.36V3.05h8.36v14h14.43v-14Z"/><path class="cls-5" d="M24.09,55.11a4.36,4.36,0,0,1,.28-1.54,4.12,4.12,0,0,1,2.14-2.33,4,4,0,0,1,1.78-.37,3.81,3.81,0,0,1,2,.52,3.35,3.35,0,0,1,1.28,1.34l-1.27.88a2.25,2.25,0,0,0-.41-.61,2.15,2.15,0,0,0-1.1-.6,3.06,3.06,0,0,0-.59-.07,2.22,2.22,0,0,0-1.09.25,2.56,2.56,0,0,0-.77.65,2.89,2.89,0,0,0-.46.91,3.6,3.6,0,0,0-.16,1,3.32,3.32,0,0,0,.18,1.09,2.94,2.94,0,0,0,.51.92,2.59,2.59,0,0,0,.79.64,2.18,2.18,0,0,0,1,.24,2.58,2.58,0,0,0,.6-.07,2,2,0,0,0,.59-.23,2.19,2.19,0,0,0,.52-.4,1.71,1.71,0,0,0,.38-.59l1.36.78a2.73,2.73,0,0,1-.58.85,4,4,0,0,1-.85.62,3.83,3.83,0,0,1-1,.38,4.33,4.33,0,0,1-1.06.13,3.73,3.73,0,0,1-1.67-.38,4.43,4.43,0,0,1-1.3-1,4.65,4.65,0,0,1-.85-1.4,4.46,4.46,0,0,1-.31-1.6Z"/><path class="cls-5" d="M36.39,59.49a3.82,3.82,0,0,1-1.7-.37,4.22,4.22,0,0,1-1.31-1,4.48,4.48,0,0,1-.85-1.39,4.36,4.36,0,0,1,0-3.23,4.33,4.33,0,0,1,.88-1.38,4,4,0,0,1,1.33-.95,4,4,0,0,1,3.36,0,4.12,4.12,0,0,1,1.3,1,4.57,4.57,0,0,1,.84,1.39,4.38,4.38,0,0,1,.3,1.58,4.3,4.3,0,0,1-.31,1.63,4.61,4.61,0,0,1-.86,1.37,4.2,4.2,0,0,1-1.32,1,3.88,3.88,0,0,1-1.67.35Zm-2.47-4.32a3.52,3.52,0,0,0,.17,1.07,2.67,2.67,0,0,0,.49.91,2.44,2.44,0,0,0,.78.64,2.26,2.26,0,0,0,1,.24,2.18,2.18,0,0,0,1.06-.25,2.34,2.34,0,0,0,.78-.65,3,3,0,0,0,.48-.92,3.37,3.37,0,0,0,.16-1,3.62,3.62,0,0,0-.17-1.07,3.06,3.06,0,0,0-.49-.91,2.41,2.41,0,0,0-.78-.63,2.44,2.44,0,0,0-2.11,0,2.34,2.34,0,0,0-.78.65,2.72,2.72,0,0,0-.47.91,3.7,3.7,0,0,0-.16,1Z"/><path class="cls-5" d="M41.82,59.43V50.91h3.1a4.49,4.49,0,0,1,1.83.34,3.75,3.75,0,0,1,1.31.91,3.65,3.65,0,0,1,.79,1.35,5,5,0,0,1,.26,1.65,5.16,5.16,0,0,1-.29,1.76,3.7,3.7,0,0,1-2.18,2.2,4.76,4.76,0,0,1-1.73.31H41.82Zm5.63-4.27A3.72,3.72,0,0,0,47.28,54a2.65,2.65,0,0,0-.49-.89,2.15,2.15,0,0,0-.8-.58,2.62,2.62,0,0,0-1.07-.2H43.48V58h1.44A2.53,2.53,0,0,0,46,57.76a2.25,2.25,0,0,0,.79-.59,2.84,2.84,0,0,0,.49-.89,3.65,3.65,0,0,0,.17-1.12Z"/><path class="cls-5" d="M56.33,58v1.45H50.41V50.91h5.81v1.45H52.07v2h3.59v1.34H52.07V58h4.26Z"/><path class="cls-5" d="M60.57,61V50.13h1.37V61Z"/><path class="cls-5" d="M66.65,59.43V50.91h1.66V58h4.34v1.45Z"/><path class="cls-5" d="M79.58,58v1.45H73.66V50.91h5.81v1.45H75.32v2h3.59v1.34H75.32V58h4.26Z"/><path class="cls-5" d="M83.3,50.91h1.46L88,59.43H86.3l-.79-2.12h-3l-.78,2.12h-1.7Zm1.91,5.23L84,52.79l-1.22,3.35Z"/><path class="cls-5" d="M88.94,59.43V50.91h3.77a2.39,2.39,0,0,1,1.09.25,2.75,2.75,0,0,1,.86.65,2.94,2.94,0,0,1,.56.91,2.66,2.66,0,0,1,.2,1A2.93,2.93,0,0,1,95,55.26a2.32,2.32,0,0,1-1.12,1l1.94,3.2H94l-1.74-2.86H90.6v2.86H88.94Zm1.66-4.31h2.08a1,1,0,0,0,.43-.11,1.05,1.05,0,0,0,.34-.29,1.41,1.41,0,0,0,.23-.44,1.61,1.61,0,0,0,.08-.54,1.45,1.45,0,0,0-.1-.55,1.6,1.6,0,0,0-.26-.44,1.28,1.28,0,0,0-.37-.29.94.94,0,0,0-.43-.1h-2Z"/><path class="cls-5" d="M98.57,54v5.46H96.91V50.91h1.28l4.44,5.59V50.92h1.66v8.51H103L98.57,54Z"/><path class="cls-5" d="M106.07,59.43V50.91h1.66v8.52Z"/><path class="cls-5" d="M111.16,54v5.46H109.5V50.91h1.28l4.44,5.59V50.92h1.66v8.51h-1.34L111.16,54Z"/><path class="cls-5" d="M124.57,58.47a3.26,3.26,0,0,1-2.38,1,3.68,3.68,0,0,1-1.58-.34,3.91,3.91,0,0,1-1.28-.92,4.35,4.35,0,0,1-.86-1.39,4.69,4.69,0,0,1-.32-1.72,4.37,4.37,0,0,1,.32-1.65,4.14,4.14,0,0,1,.88-1.36,4,4,0,0,1,1.31-.92,3.88,3.88,0,0,1,1.64-.34,4.06,4.06,0,0,1,2.06.5,3.31,3.31,0,0,1,1.29,1.36l-1.24.91a2.31,2.31,0,0,0-.91-1,2.54,2.54,0,0,0-1.27-.34,2.19,2.19,0,0,0-1,.23,2.32,2.32,0,0,0-.77.62,2.85,2.85,0,0,0-.49.91,3.48,3.48,0,0,0,0,2.21,2.83,2.83,0,0,0,.53.91,2.4,2.4,0,0,0,.8.61,2.25,2.25,0,0,0,1,.22,2.91,2.91,0,0,0,2.23-1.16v-.6h-1.72V55.05h3.08v4.38h-1.37v-1Z"/><path class="cls-5" d="M130.3,61V50.13h1.37V61Z"/><path class="cls-5" d="M135.87,55.11a4.36,4.36,0,0,1,.28-1.54,4.12,4.12,0,0,1,2.14-2.33,4,4,0,0,1,1.78-.37,3.81,3.81,0,0,1,2,.52,3.29,3.29,0,0,1,1.28,1.34l-1.27.88a2.25,2.25,0,0,0-.41-.61,2.15,2.15,0,0,0-.52-.39,2,2,0,0,0-.58-.21,3.06,3.06,0,0,0-.59-.07,2.22,2.22,0,0,0-1.09.25,2.56,2.56,0,0,0-.77.65,2.89,2.89,0,0,0-.46.91,3.6,3.6,0,0,0-.16,1,3.32,3.32,0,0,0,.18,1.09,2.94,2.94,0,0,0,.51.92,2.59,2.59,0,0,0,.79.64,2.18,2.18,0,0,0,1,.24,2.58,2.58,0,0,0,.6-.07,2,2,0,0,0,.59-.23,2.19,2.19,0,0,0,.52-.4,1.71,1.71,0,0,0,.38-.59l1.36.78a2.73,2.73,0,0,1-.58.85A4,4,0,0,1,142,59a4,4,0,0,1-1,.38,4.33,4.33,0,0,1-1.06.13,3.73,3.73,0,0,1-1.67-.38,4.43,4.43,0,0,1-1.3-1,4.65,4.65,0,0,1-.85-1.4,4.46,4.46,0,0,1-.31-1.6Z"/><path class="cls-5" d="M144.61,59.43V50.91h3.77a2.39,2.39,0,0,1,1.09.25,2.75,2.75,0,0,1,.86.65,2.94,2.94,0,0,1,.56.91,2.86,2.86,0,0,1,.2,1,2.93,2.93,0,0,1-.41,1.51,2.32,2.32,0,0,1-1.12,1l1.94,3.2h-1.86l-1.74-2.86h-1.63v2.86h-1.66Zm1.66-4.31h2.08a1,1,0,0,0,.43-.11,1,1,0,0,0,.34-.29,1.41,1.41,0,0,0,.23-.44,1.61,1.61,0,0,0,.08-.54,1.45,1.45,0,0,0-.1-.55,1.39,1.39,0,0,0-.26-.44,1.28,1.28,0,0,0-.37-.29.94.94,0,0,0-.43-.1h-2Z"/><path class="cls-5" d="M153.28,50.91l2.1,4.1,2.14-4.1h1.79l-3.1,5.54v3h-1.64v-3l-3.08-5.52h1.79Z"/><path class="cls-5" d="M160.24,59.43V50.91h3.61a2.39,2.39,0,0,1,1.09.25,2.75,2.75,0,0,1,.86.65,2.94,2.94,0,0,1,.56.91,2.86,2.86,0,0,1,.2,1,3,3,0,0,1-.19,1,3.09,3.09,0,0,1-.54.91,2.68,2.68,0,0,1-.84.64,2.44,2.44,0,0,1-1.08.24h-2v2.86h-1.66Zm1.66-4.31h1.92a.94.94,0,0,0,.76-.37,1.56,1.56,0,0,0,.31-1,1.5,1.5,0,0,0-.1-.58,1.44,1.44,0,0,0-.25-.44,1,1,0,0,0-.37-.27,1.07,1.07,0,0,0-.43-.09h-1.85v2.76Z"/><path class="cls-5" d="M174.08,52.36h-2.72v7.07h-1.64V52.36H167V50.91h7.09v1.45Z"/><path class="cls-5" d="M178.38,59.49a3.82,3.82,0,0,1-1.7-.37,4.38,4.38,0,0,1-1.31-1,4.48,4.48,0,0,1-.85-1.39,4.36,4.36,0,0,1,0-3.23,4.33,4.33,0,0,1,.88-1.38,4,4,0,0,1,1.33-.95,4,4,0,0,1,3.36,0,4.12,4.12,0,0,1,1.3,1,4.57,4.57,0,0,1,.84,1.39,4.38,4.38,0,0,1,.3,1.58,4.3,4.3,0,0,1-.31,1.63,4.61,4.61,0,0,1-.86,1.37,4.2,4.2,0,0,1-1.32,1,3.88,3.88,0,0,1-1.67.35Zm-2.47-4.32a3.52,3.52,0,0,0,.17,1.07,2.67,2.67,0,0,0,.49.91,2.44,2.44,0,0,0,.78.64,2.26,2.26,0,0,0,1.05.24,2.18,2.18,0,0,0,1.06-.25,2.34,2.34,0,0,0,.78-.65,3,3,0,0,0,.48-.92,3.37,3.37,0,0,0,.16-1,3.62,3.62,0,0,0-.17-1.07,2.75,2.75,0,0,0-.49-.91,2.41,2.41,0,0,0-.78-.63,2.44,2.44,0,0,0-2.11,0,2.34,2.34,0,0,0-.78.65,2.72,2.72,0,0,0-.47.91,3.37,3.37,0,0,0-.16,1Z"/></svg>